<svg width="193" height="72" viewBox="0 0 193 72" fill="none" xmlns="http://www.w3.org/2000/svg">
<g opacity="0.5" filter="url(#filter0_f_944_1313)">
<path d="M17.28 54.6641L18.3198 52.3766C19.3596 52.6538 20.2954 52.8271 21.1272 52.8271C23.1028 52.8271 24.5585 51.8567 25.6677 48.9106C26.3262 47.143 26.8807 44.8208 27.366 42.2213C24.6279 41.4588 22.3057 39.3792 22.3057 35.9826C22.3057 31.6848 26.0489 29.5012 29.6535 29.3626C30.2081 26.6938 30.7973 24.1983 31.5598 22.2227C33.0848 18.2022 35.7189 16.3999 38.7343 16.3999C40.0167 16.3999 41.3685 16.7465 42.7202 17.3357L41.6804 19.6232C40.6406 19.346 39.7048 19.1727 38.873 19.1727C36.8974 19.1727 35.4417 20.1431 34.3326 23.1239C33.6394 24.8915 33.0848 27.179 32.5996 29.7092C35.3377 30.5064 37.6599 32.5859 37.6599 35.9826C37.6599 40.315 33.9513 42.4986 30.2774 42.6026C29.7575 45.2713 29.1683 47.7668 28.4404 49.7424C26.9154 53.7629 24.2813 55.5999 21.2659 55.5999C19.9835 55.5999 18.6318 55.2533 17.28 54.6641ZM24.7665 35.9826C24.7665 38.0622 26.0836 39.3792 27.7819 39.9684C28.0245 38.686 28.2325 37.3343 28.4751 35.9826C28.7177 34.5269 28.9603 33.0712 29.2376 31.6501C26.8807 31.9274 24.7665 33.3484 24.7665 35.9826ZM31.3865 36.3985C31.1785 37.7156 30.9359 39.0326 30.728 40.315C33.0501 40.0724 35.199 38.6167 35.199 35.9826C35.199 33.903 33.882 32.5513 32.149 31.9621C31.9064 33.4178 31.6291 34.9081 31.3865 36.3985Z" fill="url(#paint0_linear_944_1313)"/>
</g>
<path d="M17.28 54.6641L18.3198 52.3766C19.3596 52.6538 20.2954 52.8271 21.1272 52.8271C23.1028 52.8271 24.5585 51.8567 25.6677 48.9106C26.3262 47.143 26.8807 44.8208 27.366 42.2213C24.6279 41.4588 22.3057 39.3792 22.3057 35.9826C22.3057 31.6848 26.0489 29.5012 29.6535 29.3626C30.2081 26.6938 30.7973 24.1983 31.5598 22.2227C33.0848 18.2022 35.7189 16.3999 38.7343 16.3999C40.0167 16.3999 41.3685 16.7465 42.7202 17.3357L41.6804 19.6232C40.6406 19.346 39.7048 19.1727 38.873 19.1727C36.8974 19.1727 35.4417 20.1431 34.3326 23.1239C33.6394 24.8915 33.0848 27.179 32.5996 29.7092C35.3377 30.5064 37.6599 32.5859 37.6599 35.9826C37.6599 40.315 33.9513 42.4986 30.2774 42.6026C29.7575 45.2713 29.1683 47.7668 28.4404 49.7424C26.9154 53.7629 24.2813 55.5999 21.2659 55.5999C19.9835 55.5999 18.6318 55.2533 17.28 54.6641ZM24.7665 35.9826C24.7665 38.0622 26.0836 39.3792 27.7819 39.9684C28.0245 38.686 28.2325 37.3343 28.4751 35.9826C28.7177 34.5269 28.9603 33.0712 29.2376 31.6501C26.8807 31.9274 24.7665 33.3484 24.7665 35.9826ZM31.3865 36.3985C31.1785 37.7156 30.9359 39.0326 30.728 40.315C33.0501 40.0724 35.199 38.6167 35.199 35.9826C35.199 33.903 33.882 32.5513 32.149 31.9621C31.9064 33.4178 31.6291 34.9081 31.3865 36.3985Z" fill="url(#paint1_linear_944_1313)"/>
<g style="mix-blend-mode:overlay">
<path d="M17.28 54.6641L18.3198 52.3766C19.3596 52.6538 20.2954 52.8271 21.1272 52.8271C23.1028 52.8271 24.5585 51.8567 25.6677 48.9106C26.3262 47.143 26.8807 44.8208 27.366 42.2213C24.6279 41.4588 22.3057 39.3792 22.3057 35.9826C22.3057 31.6848 26.0489 29.5012 29.6535 29.3626C30.2081 26.6938 30.7973 24.1983 31.5598 22.2227C33.0848 18.2022 35.7189 16.3999 38.7343 16.3999C40.0167 16.3999 41.3685 16.7465 42.7202 17.3357L41.6804 19.6232C40.6406 19.346 39.7048 19.1727 38.873 19.1727C36.8974 19.1727 35.4417 20.1431 34.3326 23.1239C33.6394 24.8915 33.0848 27.179 32.5996 29.7092C35.3377 30.5064 37.6599 32.5859 37.6599 35.9826C37.6599 40.315 33.9513 42.4986 30.2774 42.6026C29.7575 45.2713 29.1683 47.7668 28.4404 49.7424C26.9154 53.7629 24.2813 55.5999 21.2659 55.5999C19.9835 55.5999 18.6318 55.2533 17.28 54.6641ZM24.7665 35.9826C24.7665 38.0622 26.0836 39.3792 27.7819 39.9684C28.0245 38.686 28.2325 37.3343 28.4751 35.9826C28.7177 34.5269 28.9603 33.0712 29.2376 31.6501C26.8807 31.9274 24.7665 33.3484 24.7665 35.9826ZM31.3865 36.3985C31.1785 37.7156 30.9359 39.0326 30.728 40.315C33.0501 40.0724 35.199 38.6167 35.199 35.9826C35.199 33.903 33.882 32.5513 32.149 31.9621C31.9064 33.4178 31.6291 34.9081 31.3865 36.3985Z" fill="url(#paint2_linear_944_1313)"/>
</g>
<g style="mix-blend-mode:plus-lighter" opacity="0.8" filter="url(#filter1_f_944_1313)">
<path d="M17.28 54.6641L18.3198 52.3766C19.3596 52.6538 20.2954 52.8271 21.1272 52.8271C23.1028 52.8271 24.5585 51.8567 25.6677 48.9106C26.3262 47.143 26.8807 44.8208 27.366 42.2213C24.6279 41.4588 22.3057 39.3792 22.3057 35.9826C22.3057 31.6848 26.0489 29.5012 29.6535 29.3626C30.2081 26.6938 30.7973 24.1983 31.5598 22.2227C33.0848 18.2022 35.7189 16.3999 38.7343 16.3999C40.0167 16.3999 41.3685 16.7465 42.7202 17.3357L41.6804 19.6232C40.6406 19.346 39.7048 19.1727 38.873 19.1727C36.8974 19.1727 35.4417 20.1431 34.3326 23.1239C33.6394 24.8915 33.0848 27.179 32.5996 29.7092C35.3377 30.5064 37.6599 32.5859 37.6599 35.9826C37.6599 40.315 33.9513 42.4986 30.2774 42.6026C29.7575 45.2713 29.1683 47.7668 28.4404 49.7424C26.9154 53.7629 24.2813 55.5999 21.2659 55.5999C19.9835 55.5999 18.6318 55.2533 17.28 54.6641ZM24.7665 35.9826C24.7665 38.0622 26.0836 39.3792 27.7819 39.9684C28.0245 38.686 28.2325 37.3343 28.4751 35.9826C28.7177 34.5269 28.9603 33.0712 29.2376 31.6501C26.8807 31.9274 24.7665 33.3484 24.7665 35.9826ZM31.3865 36.3985C31.1785 37.7156 30.9359 39.0326 30.728 40.315C33.0501 40.0724 35.199 38.6167 35.199 35.9826C35.199 33.903 33.882 32.5513 32.149 31.9621C31.9064 33.4178 31.6291 34.9081 31.3865 36.3985Z" fill="url(#paint3_linear_944_1313)"/>
</g>
<path d="M107.155 49.6227C99.5275 49.6227 93.4942 43.4755 93.4942 35.9623C93.4942 28.487 99.4896 22.3398 107.155 22.3398C114.82 22.3398 120.815 28.487 120.815 35.9623C120.815 43.4755 114.82 49.6227 107.155 49.6227ZM107.155 44.6518C111.974 44.6518 115.654 40.8193 115.654 35.9623C115.654 31.1812 111.974 27.3107 107.155 27.3107C102.373 27.3107 98.6548 31.1812 98.6548 35.9623C98.6548 40.7814 102.373 44.6518 107.155 44.6518Z" fill="url(#paint4_linear_944_1313)"/>
<path d="M66.4664 49.66C63.1969 49.66 59.6428 48.3797 58.0423 45.4058C57.9516 45.2371 58.012 45.0293 58.1736 44.9263L60.9862 43.1336C61.1769 43.0121 61.4302 43.0841 61.5436 43.2798C62.6462 45.1827 64.5439 46.0552 66.5423 46.0552C68.5534 46.0552 69.9194 45.3343 69.9194 44.0062C69.9194 42.6781 69.0467 42.1468 65.0624 41.1982C60.2433 40.0598 58.5358 38.0867 58.5358 35.2028C58.5358 31.6739 61.7232 29.3212 66.4284 29.3212C69.7659 29.3212 72.4444 30.7085 73.9334 33.0187C74.0471 33.1951 73.9836 33.4282 73.8015 33.5325L71.0928 35.0847C70.9073 35.191 70.672 35.1221 70.5559 34.9427C69.676 33.5823 68.1417 32.7363 66.3146 32.7363C64.4932 32.7363 63.3928 33.4573 63.3928 34.6716C63.3928 35.8858 64.3035 36.455 67.6806 37.3277C72.8033 38.58 74.6626 40.667 74.6626 43.6647C74.6626 47.3454 71.3993 49.66 66.4664 49.66Z" fill="url(#paint5_linear_944_1313)"/>
<path d="M182.193 49.6227C177.464 49.6227 173.276 47.4292 171.447 43.6723C171.361 43.4974 171.431 43.2883 171.6 43.1918L174.914 41.298C175.112 41.1848 175.363 41.2714 175.465 41.4755C176.617 43.7857 179.058 45.1831 182.079 45.1831C185.494 45.1831 187.164 43.7032 187.164 41.8059C187.164 40.326 186.063 39.5292 183.407 38.6564L179.574 37.4422C175.628 36.152 172.592 34.2168 172.592 30.0048C172.592 25.2617 176.804 22.3398 181.775 22.3398C186.026 22.3398 189.357 24.2509 191.186 27.3552C191.294 27.5374 191.222 27.7703 191.035 27.8684L187.569 29.6805C187.386 29.7763 187.161 29.7071 187.053 29.5304C185.942 27.705 184.219 26.5518 181.851 26.5518C179.423 26.5518 177.715 27.804 177.715 29.6254C177.715 31.5606 179.347 32.3195 181.244 32.9266L185.228 34.2547C190.313 35.8864 192.4 37.9734 192.4 41.6162C192.4 46.625 187.922 49.6227 182.193 49.6227Z" fill="url(#paint6_linear_944_1313)"/>
<path d="M169.913 48.4541C170.036 48.7062 169.853 49.0002 169.572 49.0002H164.829L157.591 33.1845C157.342 32.6406 156.569 32.6406 156.32 33.1845L149.082 49.0002H144.34C144.059 49.0002 143.876 48.7059 143.999 48.4538L156.346 23.251C156.602 22.729 157.346 22.7295 157.601 23.2517L169.913 48.4541ZM157.609 33.185C157.36 32.641 156.588 32.6403 156.338 33.1839L149.082 49.0002L156.32 33.1845C156.569 32.6406 157.342 32.6406 157.591 33.1845L164.829 49.0002L157.609 33.185Z" fill="url(#paint7_linear_944_1313)"/>
<path d="M140.968 48.6208C140.968 48.8303 140.799 49.0002 140.589 49.0002H124.386C124.177 49.0002 124.007 48.8303 124.007 48.6208V23.2352C124.007 23.0257 124.177 22.8558 124.386 22.8558H128.788C128.997 22.8558 129.167 23.0257 129.167 23.2352V44.257C129.167 44.3618 129.252 44.4468 129.357 44.4468H140.589C140.799 44.4468 140.968 44.6167 140.968 44.8262V48.6208Z" fill="url(#paint8_linear_944_1313)"/>
<path d="M80.2767 41.9887V28.4454C80.2767 28.2984 80.3617 28.1646 80.4947 28.102L84.6308 26.1571C84.8824 26.0387 85.1717 26.2223 85.1717 26.5004V41.3815C85.1717 43.9998 86.6136 44.9864 88.7006 44.9864C89.4196 44.9864 90.1385 44.8556 90.7749 44.6106C91.0442 44.5069 91.3568 44.6944 91.3568 44.983V48.4233C91.3568 48.5718 91.2704 48.7073 91.1339 48.7658C89.8801 49.3031 88.6263 49.5398 87.3725 49.5398C83.0847 49.5398 80.2767 46.7318 80.2767 41.9887Z" fill="url(#paint9_linear_944_1313)"/>
<path d="M76.8009 32.2472C76.8009 32.0377 76.9708 31.8678 77.1803 31.8678H89.7709C89.9805 31.8678 90.1504 32.0377 90.1504 32.2472V35.5485C90.1504 35.7581 89.9805 35.9279 89.7709 35.9279H77.1803C76.9708 35.9279 76.8009 35.7581 76.8009 35.5485V32.2472Z" fill="url(#paint10_linear_944_1313)"/>
<defs>
<filter id="filter0_f_944_1313" x="0.946695" y="0.0665684" width="58.1069" height="71.8666" filterUnits="userSpaceOnUse" color-interpolation-filters="sRGB">
<feFlood flood-opacity="0" result="BackgroundImageFix"/>
<feBlend mode="normal" in="SourceGraphic" in2="BackgroundImageFix" result="shape"/>
<feGaussianBlur stdDeviation="8.16667" result="effect1_foregroundBlur_944_1313"/>
</filter>
<filter id="filter1_f_944_1313" x="11.8356" y="10.9555" width="36.3291" height="50.0888" filterUnits="userSpaceOnUse" color-interpolation-filters="sRGB">
<feFlood flood-opacity="0" result="BackgroundImageFix"/>
<feBlend mode="normal" in="SourceGraphic" in2="BackgroundImageFix" result="shape"/>
<feGaussianBlur stdDeviation="2.72222" result="effect1_foregroundBlur_944_1313"/>
</filter>
<linearGradient id="paint0_linear_944_1313" x1="30.0001" y1="16.3999" x2="30.0001" y2="55.5999" gradientUnits="userSpaceOnUse">
<stop stop-color="#49CBF9"/>
<stop offset="1" stop-color="#293FF8"/>
</linearGradient>
<linearGradient id="paint1_linear_944_1313" x1="30.0001" y1="16.3999" x2="30.0001" y2="55.5999" gradientUnits="userSpaceOnUse">
<stop stop-color="#49CBF9"/>
<stop offset="1" stop-color="#293FF8"/>
</linearGradient>
<linearGradient id="paint2_linear_944_1313" x1="30.0001" y1="16.3999" x2="30.0001" y2="55.5999" gradientUnits="userSpaceOnUse">
<stop stop-color="#49CBF9"/>
<stop offset="1" stop-color="#293FF8"/>
</linearGradient>
<linearGradient id="paint3_linear_944_1313" x1="30.0001" y1="16.3999" x2="30.0001" y2="55.5999" gradientUnits="userSpaceOnUse">
<stop stop-color="#49CBF9"/>
<stop offset="1" stop-color="#293FF8"/>
</linearGradient>
<linearGradient id="paint4_linear_944_1313" x1="125.2" y1="22.3398" x2="125.2" y2="49.66" gradientUnits="userSpaceOnUse">
<stop stop-color="white"/>
<stop offset="1" stop-color="#AFD2E4"/>
</linearGradient>
<linearGradient id="paint5_linear_944_1313" x1="125.2" y1="22.3398" x2="125.2" y2="49.66" gradientUnits="userSpaceOnUse">
<stop stop-color="white"/>
<stop offset="1" stop-color="#AFD2E4"/>
</linearGradient>
<linearGradient id="paint6_linear_944_1313" x1="125.2" y1="22.3398" x2="125.2" y2="49.66" gradientUnits="userSpaceOnUse">
<stop stop-color="white"/>
<stop offset="1" stop-color="#AFD2E4"/>
</linearGradient>
<linearGradient id="paint7_linear_944_1313" x1="125.2" y1="22.3398" x2="125.2" y2="49.66" gradientUnits="userSpaceOnUse">
<stop stop-color="white"/>
<stop offset="1" stop-color="#AFD2E4"/>
</linearGradient>
<linearGradient id="paint8_linear_944_1313" x1="125.2" y1="22.3398" x2="125.2" y2="49.66" gradientUnits="userSpaceOnUse">
<stop stop-color="white"/>
<stop offset="1" stop-color="#AFD2E4"/>
</linearGradient>
<linearGradient id="paint9_linear_944_1313" x1="125.2" y1="22.3398" x2="125.2" y2="49.66" gradientUnits="userSpaceOnUse">
<stop stop-color="white"/>
<stop offset="1" stop-color="#AFD2E4"/>
</linearGradient>
<linearGradient id="paint10_linear_944_1313" x1="125.2" y1="22.3398" x2="125.2" y2="49.66" gradientUnits="userSpaceOnUse">
<stop stop-color="white"/>
<stop offset="1" stop-color="#AFD2E4"/>
</linearGradient>
</defs>
</svg>
